<svg width="16" height="15" viewBox="0 0 16 15" fill="none" xmlns="http://www.w3.org/2000/svg">
<g clip-path="url(#clip0_2139_901)">
<path fill-rule="evenodd" clip-rule="evenodd" d="M15.5 7.5C15.5 11.6421 12.1421 15 8 15C3.85786 15 0.5 11.6421 0.5 7.5C0.5 3.35786 3.85786 0 8 0C12.1421 0 15.5 3.35786 15.5 7.5ZM8.26877 5.53683C7.53928 5.84025 6.08134 6.46825 3.89493 7.42083C3.5399 7.56201 3.35391 7.70013 3.33698 7.83519C3.30837 8.06343 3.59419 8.15331 3.98342 8.2757C4.03636 8.29235 4.09122 8.3096 4.14746 8.32788C4.5304 8.45236 5.04552 8.59798 5.3133 8.60377C5.55621 8.60902 5.82733 8.50887 6.12665 8.30334C8.16947 6.92438 9.22399 6.22738 9.29019 6.21235C9.3369 6.20175 9.40162 6.18843 9.44548 6.2274C9.48933 6.26638 9.48502 6.3402 9.48038 6.36C9.45206 6.48071 8.33008 7.52381 7.74945 8.06361C7.56844 8.23189 7.44005 8.35126 7.4138 8.37852C7.355 8.43959 7.29508 8.49736 7.23749 8.55288C6.88173 8.89583 6.61494 9.15301 7.25226 9.57299C7.55853 9.77482 7.8036 9.94172 8.0481 10.1082C8.31511 10.2901 8.58143 10.4714 8.92601 10.6973C9.0138 10.7548 9.09764 10.8146 9.17931 10.8728C9.49005 11.0944 9.76922 11.2934 10.1141 11.2616C10.3145 11.2432 10.5215 11.0548 10.6267 10.4927C10.8751 9.16446 11.3635 6.28653 11.4764 5.10061C11.4863 4.99671 11.4738 4.86373 11.4638 4.80536C11.4539 4.74699 11.433 4.66382 11.3571 4.60225C11.2672 4.52934 11.1285 4.51396 11.0665 4.51505C10.7844 4.52002 10.3516 4.67051 8.26877 5.53683Z" fill="#64748B" style="fill:#64748B;fill:color(display-p3 0.3922 0.4549 0.5451);fill-opacity:1;"/>
</g>
<defs>
<clipPath id="clip0_2139_901">
<rect width="15" height="15" fill="white" style="fill:white;fill-opacity:1;" transform="translate(0.5)"/>
</clipPath>
</defs>
</svg>
