<svg width="16" height="15" viewBox="0 0 16 15" fill="none" xmlns="http://www.w3.org/2000/svg">
<g clip-path="url(#clip0_2139_897)">
<path fill-rule="evenodd" clip-rule="evenodd" d="M1.55442 1.05442C0.5 2.10883 0.5 3.80588 0.5 7.2V7.8C0.5 11.1941 0.5 12.8912 1.55442 13.9456C2.60883 15 4.30588 15 7.7 15H8.3C11.6941 15 13.3912 15 14.4456 13.9456C15.5 12.8912 15.5 11.1941 15.5 7.8V7.2C15.5 3.80588 15.5 2.10883 14.4456 1.05442C13.3912 0 11.6941 0 8.3 0H7.7C4.30588 0 2.60883 0 1.55442 1.05442ZM3.03129 4.56253C3.11254 8.46253 5.06253 10.8063 8.48128 10.8063H8.67506V8.57503C9.93131 8.70003 10.8812 9.61878 11.2625 10.8063H13.0375C12.55 9.03128 11.2687 8.05003 10.4687 7.67503C11.2687 7.21253 12.3937 6.08753 12.6625 4.56253H11.0499C10.6999 5.80003 9.66256 6.92503 8.67506 7.03128V4.56253H7.0625V8.88753C6.0625 8.63753 4.80003 7.42503 4.74378 4.56253H3.03129Z" fill="#64748B" style="fill:#64748B;fill:color(display-p3 0.3922 0.4549 0.5451);fill-opacity:1;"/>
</g>
<defs>
<clipPath id="clip0_2139_897">
<rect width="15" height="15" fill="white" style="fill:white;fill-opacity:1;" transform="translate(0.5)"/>
</clipPath>
</defs>
</svg>
